<svg xmlns="http://www.w3.org/2000/svg" width="20" height="13.504" viewBox="0 0 20 13.504">
  <path id="delivery" d="M18.969,9.03a.553.553,0,0,0,.326-.782q-.025-.049-.052-.1l-.017-.028-.039-.065-.023-.036-.036-.055L19.1,7.929l-.035-.049-.03-.04L19,7.794l-.033-.04-.035-.042L18.9,7.673l-.036-.04-.037-.039-.037-.038-.039-.038-.037-.035-.041-.037-.038-.033-.042-.036-.039-.031-.044-.034-.039-.03-.046-.033-.04-.028-.047-.032L18.3,7.163l-.049-.03-.041-.024-.051-.029-.042-.022-.052-.028-.042-.02-.054-.026-.04-.018-.057-.025-.02-.008c-.043-.017-.086-.034-.129-.049l-.048-.017-.051-.016-.052-.016-.051-.014-.054-.015-.05-.012-.055-.013-.05-.01-.057-.011-.05-.009-.058-.009-.05-.007-.059-.007-.051,0-.06-.005-.051,0-.061,0-.05,0h-.113l-.062,0-.051,0h-.023L15.992,5.8a.285.285,0,0,0-.495.282l.5.877a5.7,5.7,0,0,0-1.839,4,2.213,2.213,0,0,1-.531.055H8.569v-.447A3.187,3.187,0,0,0,5.386,7.385H3.549a3.552,3.552,0,0,0-1.062.162.285.285,0,1,0,.17.543,2.982,2.982,0,0,1,.892-.136H5.386A2.617,2.617,0,0,1,8,10.569v.447H.65a.081.081,0,0,1-.081-.081A2.979,2.979,0,0,1,1.6,8.679a.285.285,0,1,0-.372-.431A3.542,3.542,0,0,0,.8,8.687,4.638,4.638,0,0,1,5.2,5.508H9.654L9.073,7.091a2.5,2.5,0,0,0,.274,2.254,2.407,2.407,0,0,0,1.933,1.077l.088,0h1.552a1.2,1.2,0,0,0,1.173-.96c.53-1.966-.225-4.589-.636-5.779h.676l.7,1.224a.285.285,0,1,0,.495-.282l-.536-.942h.607a.5.5,0,0,0,.5-.5V1.844a.5.5,0,0,0-.626-.489l-2.407.6.064-.016-.093-.113a.312.312,0,0,0,.063-.089.317.317,0,0,0-.042-.334l-.6-.729A.5.5,0,0,0,11.867.5L10.62.512a.445.445,0,0,0-.442.444v.3a.686.686,0,0,0,.687.685l1.3-.01.289.351a.642.642,0,0,0-.077.306V3.09l-1.211.228a.289.289,0,0,0,.053.573.281.281,0,0,0,.054-.005l1.358-.256a.472.472,0,0,0,.221.055h0c.37,1.028,1.211,3.713.687,5.639,0,.007,0,.014,0,.021a.629.629,0,0,1-.617.509H11.3a1.843,1.843,0,0,1-1.48-.826,1.906,1.906,0,0,1-.212-1.739l.638-1.739h.132a.314.314,0,0,0,.308-.377,2.8,2.8,0,0,0-.377-.928,1.611,1.611,0,0,0-1.389-.786H7.052a.477.477,0,0,0-.44.294,2.914,2.914,0,0,0-2.593-2.47v-.3a.285.285,0,0,0-.569,0v.3A2.913,2.913,0,0,0,.829,4.052a.576.576,0,0,0-.5.57v.311A.576.576,0,0,0,.9,5.508h.912V6.2A5.189,5.189,0,0,0,0,10.139v.8a.651.651,0,0,0,.65.65H1.657a2.8,2.8,0,0,0,5.552,0h6.418a2.629,2.629,0,0,0,.782-.107A2.8,2.8,0,1,0,18.969,9.03ZM14.823,2.055l.506-.127V3.115h-.506Zm-3.961-.687a.116.116,0,0,1-.116-.116V1.08l1.091-.011.239.29Zm2.085,1.747V2.584A.074.074,0,0,1,13,2.512L14.254,2.2v.917Zm-5.8,1.818V4.027H8.919a1.229,1.229,0,0,1,1.106.912H7.144Zm-4.763.838V5.508h.454A5.178,5.178,0,0,0,2.382,5.771ZM3.734,1.837A2.342,2.342,0,0,1,6.07,4.047H1.4A2.342,2.342,0,0,1,3.734,1.837ZM.9,4.939a.006.006,0,0,1-.006-.006V4.622A.006.006,0,0,1,.9,4.616H6.569a.006.006,0,0,1,.006.006v.311a.006.006,0,0,1-.006.006Zm4.611,6.646a1.144,1.144,0,0,1-2.156,0ZM4.433,13.434a2.225,2.225,0,0,1-2.2-1.849h.53a1.713,1.713,0,0,0,3.34,0h.53A2.225,2.225,0,0,1,4.433,13.434Zm10.383-3.019c-.01.026-.021.05-.032.074l0,.005-.006.013c-.01.02-.021.039-.032.057l-.006.01a5.5,5.5,0,0,1,1.741-3.287h0l.035,0,.057,0h.035l.057,0h.128l.054,0,.037,0,.052,0,.039,0,.05.006.039.006.048.007.04.007.046.009.041.009.045.01.041.011.043.011.042.012.041.013.042.014.039.014.043.016.038.015.043.018.036.016.042.019.035.017.042.021.034.018.042.023.033.019.041.024.031.02.041.026.03.02.04.028.029.022.039.029.028.023.038.031.028.024.036.032.027.025.035.033.026.026L18.425,8l.025.027.032.036.025.029.031.037.024.03.029.038.023.031.028.039.022.033.026.04.02.033.025.042.015.027c.009.016.019.032.027.049l-.079,0h-.031l-.052,0-.057,0h-.028l-.072,0h-.017l-.078.006h-.015l-.081.007h-.014l-.089.009h-.009l-.094.011h-.008l-.1.013H17.95l-.1.015h-.006l-.1.017h0l-.1.018-.008,0-.1.02-.009,0-.1.022-.011,0-.1.025-.013,0-.1.026-.015,0-.1.028-.018.005-.1.03-.021.006-.094.031-.024.008-.092.033L16.7,8.86l-.09.035-.029.011-.087.036-.032.013-.083.037-.035.016-.08.039-.037.018-.077.04-.04.021-.074.041L16,9.19l-.071.042-.044.026-.068.044-.045.029-.065.045-.047.033-.056.041-.026.02-.028.021-.031.025-.046.037-.031.025-.015.013-.083.071-.006.005-.012.01a1.9,1.9,0,0,0-.5.738A0,0,0,0,1,14.816,10.415Zm3.1.257-.276-.527a1.144,1.144,0,1,1-1.552.766l.294.563a.86.86,0,0,0,.508.425.87.87,0,0,0,.26.04.866.866,0,0,0,.766-1.266Zm-.63.663a.3.3,0,0,1-.4-.125l-.546-1.044v0l-.2-.391q.058-.037.118-.072l.009-.005.112-.063.027-.014.1-.053.041-.02.076-.035.034-.015.209.4.006.012.538,1.03A.3.3,0,0,1,17.287,11.335Zm-.089,2.1A2.236,2.236,0,0,1,14.964,11.2c0-.008,0-.016,0-.023A1.312,1.312,0,0,0,15.132,11l.01-.013q.029-.038.056-.078l.029-.045.023-.038.022-.04.009-.017.013-.027.011-.024,0-.006.009-.019c.011-.025.021-.05.031-.075v0l.007-.016a1.362,1.362,0,0,1,.1-.2,1.338,1.338,0,0,1,.222-.275l.079.151A1.714,1.714,0,1,0,17.3,9.489L17.2,9.3a5.553,5.553,0,0,1,.809-.178,2.234,2.234,0,0,1-.809,4.315Zm0,0" transform="translate(0 -0.499)" fill="#5a4682"/>
</svg>
