<svg id="gym" xmlns="http://www.w3.org/2000/svg" width="17" height="19.092" viewBox="0 0 17 19.092">
  <path id="Path_3" data-name="Path 3" d="M10.568,1.225a.283.283,0,0,0-.4.29,4.7,4.7,0,0,1-.423,2.878,2.533,2.533,0,0,1-.8-1.314A2.807,2.807,0,0,1,9.463.46.283.283,0,0,0,9.247,0C7.54,0,6.172,1.039,5.293,3.005a10.784,10.784,0,0,0-.743,2.485,1.837,1.837,0,0,1-.626-1.5A3.911,3.911,0,0,1,4.129,2.77a.28.28,0,0,0-.43-.322A9,9,0,0,0,1.84,4.534,11.119,11.119,0,0,0,0,10.742a8.3,8.3,0,0,0,2.473,5.8,8.672,8.672,0,0,0,6.176,2.548,8.158,8.158,0,0,0,6.077-2.669A8.533,8.533,0,0,0,17,10.742C17,6.561,14.836,3.359,10.568,1.225ZM8.649,18.532a8.05,8.05,0,0,1-8.089-7.79A10.564,10.564,0,0,1,2.294,4.864a9.8,9.8,0,0,1,1.1-1.376,4.018,4.018,0,0,0-.031.491A2.319,2.319,0,0,0,4.638,6.21a.283.283,0,0,0,.4-.221A10.3,10.3,0,0,1,5.8,3.234,3.979,3.979,0,0,1,8.68.607,3.4,3.4,0,0,0,8.4,3.234a2.658,2.658,0,0,0,1.356,1.8.28.28,0,0,0,.313-.1,4.693,4.693,0,0,0,.7-2.969c3.76,2.027,5.666,4.978,5.666,8.779A7.9,7.9,0,0,1,8.649,18.532Zm0,0" fill="#5a4682"/>
  <path id="Path_4" data-name="Path 4" d="M75.465,184.359H73.989a.28.28,0,0,0,0,.561h1.476a.617.617,0,0,1,.616.616v5.679a.617.617,0,0,1-.616.616H65.3a.617.617,0,0,1-.616-.616v-5.679a.617.617,0,0,1,.616-.616h7.342a.28.28,0,1,0,0-.561H65.3a1.178,1.178,0,0,0-1.177,1.177v5.679a1.178,1.178,0,0,0,1.177,1.177H75.465a1.178,1.178,0,0,0,1.177-1.177v-5.679A1.178,1.178,0,0,0,75.465,184.359Zm0,0" transform="translate(-61.734 -177.485)" fill="#5a4682"/>
  <path id="Path_5" data-name="Path 5" d="M149.531,249.965l.626.895a.15.15,0,0,1,.03.089.345.345,0,0,1-.311.273.164.164,0,0,1-.136-.072l-.575-.848-.264.243v.468c0,.085-.128.175-.281.175s-.268-.089-.268-.175v-2.858c0-.1.111-.17.268-.17s.281.068.281.17v1.785l.8-.754a.17.17,0,0,1,.111-.043.307.307,0,0,1,.268.264.144.144,0,0,1-.047.1Zm0,0" transform="translate(-142.82 -238.737)" fill="#5a4682"/>
  <path id="Path_6" data-name="Path 6" d="M201.7,280.151v-.341a.819.819,0,0,1,.92-.873c.4,0,.682.166.682.332,0,.1-.085.268-.217.268-.094,0-.17-.119-.422-.119-.29,0-.413.145-.413.392v.341c0,.247.124.392.417.392.255,0,.319-.128.426-.128a.258.258,0,0,1,.234.26c0,.17-.3.349-.7.349A.819.819,0,0,1,201.7,280.151Zm0,0" transform="translate(-194.174 -268.536)" fill="#5a4682"/>
  <path id="Path_7" data-name="Path 7" d="M251.611,279.772v1.044c0,.1-.115.175-.268.175s-.247-.077-.247-.175v-.124a.847.847,0,0,1-.647.336.52.52,0,0,1-.554-.566c0-.49.4-.626.992-.626h.175v-.055a.358.358,0,0,0-.375-.392c-.328,0-.383.132-.486.132-.123,0-.187-.149-.187-.272,0-.175.379-.307.681-.307A.8.8,0,0,1,251.611,279.772Zm-.549.349H251c-.285,0-.554.03-.554.268a.209.209,0,0,0,.226.23.445.445,0,0,0,.392-.409Zm0,0" transform="translate(-240.576 -268.54)" fill="#5a4682"/>
  <path id="Path_8" data-name="Path 8" d="M308.471,248.155v2.858c0,.085-.128.175-.277.175s-.273-.089-.273-.175v-2.858c0-.1.111-.17.273-.17S308.471,248.053,308.471,248.155Zm0,0" transform="translate(-296.44 -238.737)" fill="#5a4682"/>
</svg>
